<?xml version="1.0" encoding="utf-8"?>
<!-- Generator: Adobe Illustrator 16.0.4, SVG Export Plug-In . SVG Version: 6.00 Build 0)  -->
<!DOCTYPE svg PUBLIC "-//W3C//DTD SVG 1.1//EN" "http://www.w3.org/Graphics/SVG/1.1/DTD/svg11.dtd">
<svg version="1.1" id="Layer_1" xmlns="http://www.w3.org/2000/svg" xmlns:xlink="http://www.w3.org/1999/xlink" x="0px" y="0px"
	 width="30px" height="30px" viewBox="0 0 30 30" enable-background="new 0 0 30 30" xml:space="preserve">
<circle fill="none" stroke="#000000" stroke-miterlimit="10" cx="15.126" cy="15" r="13.543"/>
<path fill="none" stroke="#E84D51" stroke-miterlimit="10" d="M15,8.188c-4.188,0.938-2.75,3.625-2.75,3.625s0.065,3.807-2,3.281
	c-3.438-0.875-3.188,4.969-3.156,4.781"/>
<path fill="none" stroke="#71519D" stroke-miterlimit="10" d="M6.488,19.049C10.671,18.09,9.22,15.41,9.22,15.41
	s-0.084-3.807,1.983-3.292c3.442,0.857,3.162-4.985,3.132-4.797"/>
<path fill="none" stroke="#71519D" stroke-miterlimit="10" d="M21.41,20.37c-3.154-2.908-4.545-0.196-4.545-0.196
	s-3.093,2.222-3.837,0.225c-1.239-3.324-5.899,0.21-5.729,0.128"/>
<path fill="none" stroke="#E84D51" stroke-miterlimit="10" d="M22.505,19.021c0.674-4.238-2.354-3.894-2.354-3.894
	s-3.562-1.345-2.312-3.07c2.082-2.872-3.441-4.796-3.279-4.698"/>
<path fill="none" stroke="#98C781" stroke-miterlimit="10" d="M15.405,7.138c-0.908,4.194,2.135,4.019,2.135,4.019
	s3.479,1.541,2.136,3.193c-2.237,2.751,3.17,4.981,3.015,4.874"/>
<path fill="none" stroke="#98C781" stroke-miterlimit="10" d="M7.755,19.719c3.128,2.937,4.544,0.237,4.544,0.237
	s3.11-2.191,3.837-0.188c1.206,3.335,5.901-0.154,5.729-0.076"/>
<ellipse fill="#71519D" cx="6.812" cy="20.219" rx="3.438" ry="3.594"/>
<ellipse fill="#E84D51" cx="14.812" cy="5.406" rx="3.438" ry="3.594"/>
<ellipse fill="#98C781" cx="23.312" cy="20.219" rx="3.438" ry="3.594"/>
</svg>
